# xmcd
#
# Track frame offsets: 
#        150
#        18940
#        36940
#        57030
#        71550
#        89615
#        105355
#        122367
#        138800
#        153402
#
# Disc length: 2240 seconds
#
# Revision: 0
# Processed by: cddbd v1.5.1PL2 Copyright (c) Steve Scherf et al.
# Submitted via: ExactAudioCopy v0.95b4
#
DISCID=7508be0a
DTITLE=เกษม  คมสันต์ - ได้รักก็พอ
DYEAR=2003
DGENRE=Country
TTITLE0=ได้รักก็พอ
TTITLE1=อยู่ดีมีเฮง
TTITLE2=หอมกลิ่นข้าวจี่
TTITLE3=ได้หนุ่มตลาดนัด
TTITLE4=ข้าวคอยฝนคนคอยแฟน
TTITLE5=คันไถพ่ายรัก
TTITLE6=ซิ้งสาวขอนแก่น
TTITLE7=ความระทมคือเพื่อนตาย
TTITLE8=มอเตอร์ไซด์ใจว่าง
TTITLE9=หาเงินส่งบ้าน
EXTD=
EXTT0=
EXTT1=
EXTT2=
EXTT3=
EXTT4=
EXTT5=
EXTT6=
EXTT7=
EXTT8=
EXTT9=
PLAYORDER=
